G75*
G70*
%OFA0B0*%
%FSLAX25Y25*%
%IPPOS*%
%LPD*%
%AMOC8*
5,1,8,0,0,1.08239X$1,22.5*
%
%ADD10C,0.01181*%
%ADD11R,0.07400X0.07400*%
%ADD12C,0.07400*%
%ADD13C,0.01000*%
%ADD14C,0.03600*%
D10*
X0008466Y0003830D02*
X0318466Y0003830D01*
X0318466Y0223830D01*
X0008466Y0223830D01*
X0008466Y0003830D01*
D11*
X0238663Y0017279D03*
X0238663Y0039326D03*
X0238663Y0061373D03*
X0238663Y0083420D03*
X0238663Y0105468D03*
X0238663Y0127515D03*
X0238663Y0149562D03*
X0238663Y0171609D03*
X0238663Y0201531D03*
D12*
X0238663Y0211531D03*
X0238663Y0181609D03*
X0238663Y0159562D03*
X0238663Y0137515D03*
X0238663Y0115468D03*
X0238663Y0093420D03*
X0238663Y0071373D03*
X0238663Y0049326D03*
X0238663Y0027279D03*
D13*
X0230966Y0025330D02*
X0230966Y0040330D01*
X0238466Y0040330D01*
X0238663Y0039326D01*
X0238663Y0049326D02*
X0238466Y0050330D01*
X0195966Y0050330D01*
X0200966Y0035330D02*
X0183466Y0017830D01*
X0128466Y0017830D01*
X0125966Y0025330D02*
X0158466Y0025330D01*
X0163466Y0030330D01*
X0158466Y0030330D02*
X0173466Y0045330D01*
X0223466Y0045330D01*
X0223466Y0057830D02*
X0230966Y0065330D01*
X0238466Y0070330D02*
X0238663Y0071373D01*
X0238466Y0070330D02*
X0223466Y0070330D01*
X0223466Y0057830D02*
X0133466Y0057830D01*
X0128466Y0052830D01*
X0123466Y0047830D02*
X0110966Y0060330D01*
X0110966Y0065330D02*
X0103466Y0065330D01*
X0085966Y0047830D01*
X0085966Y0042830D02*
X0133466Y0042830D01*
X0133466Y0037830D02*
X0073466Y0037830D01*
X0060966Y0050330D01*
X0058466Y0050330D01*
X0060966Y0045330D02*
X0048466Y0045330D01*
X0045966Y0047830D01*
X0045966Y0042830D02*
X0058466Y0042830D01*
X0070966Y0030330D01*
X0120966Y0030330D01*
X0125966Y0025330D01*
X0138466Y0030330D02*
X0158466Y0030330D01*
X0150966Y0035330D02*
X0070966Y0035330D01*
X0060966Y0045330D01*
X0053466Y0055330D02*
X0073466Y0055330D01*
X0085966Y0042830D01*
X0085966Y0052830D02*
X0075966Y0062830D01*
X0055966Y0062830D01*
X0045966Y0072830D01*
X0028466Y0072830D01*
X0028466Y0190330D01*
X0048466Y0210330D01*
X0070966Y0210330D01*
X0073466Y0215330D02*
X0048466Y0215330D01*
X0025966Y0192830D01*
X0025966Y0067830D01*
X0045966Y0067830D01*
X0045966Y0060330D02*
X0038466Y0052830D01*
X0038466Y0025330D01*
X0085966Y0025330D01*
X0070966Y0017830D02*
X0050966Y0017830D01*
X0048466Y0020330D01*
X0045966Y0037830D02*
X0040966Y0037830D01*
X0040966Y0047830D01*
X0053466Y0060330D01*
X0060966Y0067830D02*
X0083466Y0067830D01*
X0080966Y0077830D02*
X0075966Y0077830D01*
X0070966Y0077830D02*
X0050966Y0077830D01*
X0048466Y0080330D02*
X0068466Y0100330D01*
X0080966Y0100330D01*
X0083466Y0102830D01*
X0113466Y0102830D01*
X0116466Y0100330D01*
X0118466Y0105330D02*
X0168466Y0105330D01*
X0170966Y0100330D02*
X0178466Y0107830D01*
X0193466Y0107830D01*
X0198466Y0102830D01*
X0203466Y0107830D01*
X0218466Y0107830D01*
X0228466Y0097830D01*
X0233466Y0102830D01*
X0233466Y0115330D01*
X0213466Y0115330D01*
X0195966Y0132830D01*
X0200966Y0137830D02*
X0238466Y0137830D01*
X0238663Y0137515D01*
X0248466Y0140330D02*
X0248466Y0127830D01*
X0240966Y0127830D01*
X0238663Y0127515D01*
X0238466Y0117830D02*
X0238663Y0115468D01*
X0238466Y0117830D02*
X0215966Y0117830D01*
X0210966Y0122830D01*
X0218466Y0112830D02*
X0178466Y0112830D01*
X0168466Y0122830D01*
X0133466Y0122830D01*
X0133466Y0127830D02*
X0110966Y0105330D01*
X0080966Y0105330D01*
X0085966Y0110330D02*
X0068466Y0110330D01*
X0055966Y0097830D01*
X0055966Y0102830D02*
X0043466Y0102830D01*
X0035966Y0110330D01*
X0035966Y0182830D01*
X0045966Y0192830D01*
X0045966Y0197830D02*
X0033466Y0185330D01*
X0033466Y0080330D01*
X0048466Y0080330D01*
X0045966Y0085330D02*
X0045966Y0097830D01*
X0055966Y0102830D02*
X0060966Y0107830D01*
X0065966Y0112830D02*
X0045966Y0112830D01*
X0045966Y0107830D01*
X0045966Y0112830D02*
X0038466Y0112830D01*
X0038466Y0180330D01*
X0060966Y0202830D01*
X0118466Y0202830D01*
X0123466Y0197830D01*
X0123466Y0190330D02*
X0148466Y0190330D01*
X0153466Y0185330D02*
X0138466Y0185330D01*
X0128466Y0180330D02*
X0173466Y0180330D01*
X0180966Y0187830D01*
X0240966Y0187830D01*
X0250966Y0177830D01*
X0250966Y0077830D01*
X0185966Y0077830D01*
X0168466Y0060330D01*
X0115966Y0060330D01*
X0110966Y0065330D01*
X0113466Y0067830D02*
X0105966Y0067830D01*
X0100966Y0072830D01*
X0063466Y0072830D01*
X0065966Y0082830D02*
X0080966Y0082830D01*
X0080966Y0077830D02*
X0090966Y0087830D01*
X0123466Y0087830D01*
X0125966Y0090330D01*
X0165966Y0090330D01*
X0178466Y0102830D01*
X0170966Y0100330D02*
X0133466Y0100330D01*
X0133466Y0110330D02*
X0195966Y0110330D01*
X0198466Y0107830D01*
X0203466Y0102830D02*
X0200966Y0100330D01*
X0190966Y0100330D01*
X0178466Y0087830D01*
X0163466Y0087830D01*
X0160966Y0085330D01*
X0118466Y0085330D01*
X0105966Y0072830D01*
X0113466Y0067830D02*
X0120966Y0075330D01*
X0178466Y0075330D01*
X0190966Y0087830D01*
X0225966Y0087830D01*
X0238663Y0083420D02*
X0240966Y0085330D01*
X0248466Y0092830D01*
X0248466Y0105330D01*
X0240966Y0105330D01*
X0238663Y0105468D01*
X0228466Y0102830D02*
X0218466Y0112830D01*
X0238663Y0093420D02*
X0238466Y0092830D01*
X0188466Y0092830D01*
X0183466Y0087830D01*
X0163466Y0082830D02*
X0135966Y0082830D01*
X0133466Y0080330D01*
X0120966Y0070330D02*
X0145966Y0070330D01*
X0153466Y0055330D02*
X0145966Y0047830D01*
X0123466Y0047830D01*
X0133466Y0037830D02*
X0138466Y0042830D01*
X0153466Y0055330D02*
X0253466Y0055330D01*
X0253466Y0180330D01*
X0243466Y0190330D01*
X0235966Y0190330D01*
X0220966Y0205330D01*
X0158466Y0205330D01*
X0048466Y0205330D01*
X0058466Y0190330D02*
X0065966Y0197830D01*
X0070966Y0192830D02*
X0078466Y0200330D01*
X0108466Y0200330D01*
X0128466Y0180330D01*
X0125966Y0177830D02*
X0175966Y0177830D01*
X0183466Y0177830D02*
X0188466Y0182830D01*
X0238466Y0182830D01*
X0238663Y0181609D01*
X0238663Y0171609D02*
X0240966Y0170330D01*
X0248466Y0162830D01*
X0248466Y0150330D01*
X0240966Y0150330D01*
X0238663Y0149562D01*
X0240966Y0147830D01*
X0248466Y0140330D01*
X0200966Y0137830D02*
X0190966Y0147830D01*
X0168466Y0157830D02*
X0168466Y0122830D01*
X0163466Y0117830D02*
X0143466Y0117830D01*
X0133466Y0127830D02*
X0133466Y0132830D01*
X0133466Y0137830D02*
X0140966Y0130330D01*
X0133466Y0137830D02*
X0120966Y0137830D01*
X0118466Y0135330D01*
X0113466Y0135330D02*
X0110966Y0137830D01*
X0068466Y0137830D01*
X0078466Y0145330D02*
X0083466Y0140330D01*
X0145966Y0140330D01*
X0158466Y0127830D01*
X0158466Y0132830D02*
X0145966Y0145330D01*
X0143466Y0142830D01*
X0110966Y0142830D01*
X0108466Y0145330D01*
X0103466Y0145330D02*
X0083466Y0145330D01*
X0080966Y0157830D02*
X0163466Y0157830D01*
X0168466Y0157830D02*
X0153466Y0172830D01*
X0093466Y0172830D01*
X0095966Y0177830D02*
X0068466Y0177830D01*
X0063466Y0172830D01*
X0058466Y0175330D02*
X0055966Y0172830D01*
X0045966Y0172830D01*
X0045966Y0177830D02*
X0048466Y0180330D01*
X0088466Y0180330D01*
X0090966Y0182830D01*
X0090966Y0187830D02*
X0093466Y0187830D01*
X0103466Y0177830D01*
X0090966Y0187830D02*
X0085966Y0182830D01*
X0045966Y0182830D01*
X0053466Y0187830D02*
X0055966Y0185330D01*
X0068466Y0185330D01*
X0073466Y0190330D01*
X0103966Y0190330D01*
X0108466Y0195330D02*
X0125966Y0177830D01*
X0113466Y0167830D02*
X0110966Y0165330D01*
X0060966Y0165330D01*
X0045966Y0150330D01*
X0045966Y0140330D02*
X0040966Y0140330D01*
X0040966Y0127830D01*
X0053466Y0115330D01*
X0060966Y0115330D01*
X0063466Y0117830D01*
X0108466Y0117830D01*
X0113466Y0112830D01*
X0108466Y0122830D02*
X0098466Y0122830D01*
X0093466Y0122830D02*
X0090966Y0120330D01*
X0060966Y0120330D01*
X0060966Y0125330D02*
X0070966Y0125330D01*
X0078466Y0127830D02*
X0113466Y0127830D01*
X0108466Y0132830D02*
X0053466Y0132830D01*
X0045966Y0130330D02*
X0045966Y0127830D01*
X0045966Y0130330D02*
X0065966Y0150330D01*
X0108466Y0150330D01*
X0108466Y0155330D02*
X0063466Y0155330D01*
X0078466Y0160330D02*
X0080966Y0157830D01*
X0080966Y0167830D02*
X0045966Y0167830D01*
X0080966Y0167830D02*
X0085966Y0172830D01*
X0108466Y0155330D02*
X0115966Y0147830D01*
X0143466Y0147830D01*
X0145966Y0145330D02*
X0148466Y0147830D01*
X0148466Y0152830D01*
X0138466Y0152830D01*
X0148466Y0152830D02*
X0150966Y0152830D01*
X0140966Y0195330D02*
X0193466Y0195330D01*
X0140966Y0195330D02*
X0138466Y0197830D01*
X0108466Y0195330D02*
X0085966Y0195330D01*
X0078466Y0210330D02*
X0073466Y0215330D01*
X0060966Y0125330D02*
X0055966Y0120330D01*
X0085966Y0110330D02*
X0088466Y0112830D01*
X0105966Y0097830D02*
X0108466Y0095330D01*
X0145966Y0095330D01*
X0173466Y0035330D02*
X0160966Y0022830D01*
X0110966Y0022830D01*
X0108466Y0025330D01*
X0230966Y0025330D02*
X0238466Y0017830D01*
X0238663Y0017279D01*
D14*
X0223466Y0045330D03*
X0200966Y0035330D03*
X0195966Y0050330D03*
X0173466Y0035330D03*
X0163466Y0030330D03*
X0150966Y0035330D03*
X0138466Y0030330D03*
X0138466Y0042830D03*
X0133466Y0042830D03*
X0128466Y0052830D03*
X0145966Y0047830D03*
X0145966Y0070330D03*
X0133466Y0080330D03*
X0120966Y0070330D03*
X0110966Y0060330D03*
X0105966Y0072830D03*
X0083466Y0067830D03*
X0075966Y0077830D03*
X0070966Y0077830D03*
X0065966Y0082830D03*
X0063466Y0072830D03*
X0060966Y0067830D03*
X0053466Y0060330D03*
X0053466Y0055330D03*
X0045966Y0060330D03*
X0045966Y0067830D03*
X0045966Y0072830D03*
X0050966Y0077830D03*
X0045966Y0085330D03*
X0045966Y0097830D03*
X0055966Y0097830D03*
X0060966Y0107830D03*
X0065966Y0112830D03*
X0060966Y0120330D03*
X0055966Y0120330D03*
X0045966Y0127830D03*
X0053466Y0132830D03*
X0045966Y0140330D03*
X0045966Y0150330D03*
X0063466Y0155330D03*
X0078466Y0160330D03*
X0085966Y0172830D03*
X0093466Y0172830D03*
X0095966Y0177830D03*
X0090966Y0182830D03*
X0103466Y0177830D03*
X0103966Y0190330D03*
X0085966Y0195330D03*
X0070966Y0192830D03*
X0065966Y0197830D03*
X0058466Y0190330D03*
X0053466Y0187830D03*
X0045966Y0182830D03*
X0045966Y0177830D03*
X0045966Y0172830D03*
X0045966Y0167830D03*
X0058466Y0175330D03*
X0063466Y0172830D03*
X0045966Y0192830D03*
X0045966Y0197830D03*
X0048466Y0205330D03*
X0070966Y0210330D03*
X0078466Y0210330D03*
X0123466Y0197830D03*
X0123466Y0190330D03*
X0138466Y0185330D03*
X0148466Y0190330D03*
X0153466Y0185330D03*
X0138466Y0197830D03*
X0158466Y0205330D03*
X0193466Y0195330D03*
X0183466Y0177830D03*
X0175966Y0177830D03*
X0163466Y0157830D03*
X0150966Y0152830D03*
X0143466Y0147830D03*
X0138466Y0152830D03*
X0118466Y0135330D03*
X0113466Y0135330D03*
X0108466Y0132830D03*
X0113466Y0127830D03*
X0108466Y0122830D03*
X0098466Y0122830D03*
X0093466Y0122830D03*
X0088466Y0112830D03*
X0080966Y0105330D03*
X0080966Y0100330D03*
X0080966Y0082830D03*
X0105966Y0097830D03*
X0116466Y0100330D03*
X0118466Y0105330D03*
X0113466Y0112830D03*
X0133466Y0110330D03*
X0133466Y0100330D03*
X0125966Y0090330D03*
X0145966Y0095330D03*
X0163466Y0082830D03*
X0183466Y0087830D03*
X0178466Y0102830D03*
X0168466Y0105330D03*
X0163466Y0117830D03*
X0158466Y0127830D03*
X0158466Y0132830D03*
X0140966Y0130330D03*
X0133466Y0132830D03*
X0133466Y0122830D03*
X0143466Y0117830D03*
X0108466Y0145330D03*
X0103466Y0145330D03*
X0108466Y0150330D03*
X0113466Y0167830D03*
X0083466Y0145330D03*
X0078466Y0145330D03*
X0068466Y0137830D03*
X0078466Y0127830D03*
X0070966Y0125330D03*
X0045966Y0107830D03*
X0085966Y0052830D03*
X0085966Y0047830D03*
X0085966Y0042830D03*
X0070966Y0035330D03*
X0070966Y0030330D03*
X0085966Y0025330D03*
X0070966Y0017830D03*
X0048466Y0020330D03*
X0045966Y0037830D03*
X0045966Y0042830D03*
X0045966Y0047830D03*
X0058466Y0050330D03*
X0108466Y0025330D03*
X0128466Y0017830D03*
X0223466Y0070330D03*
X0230966Y0065330D03*
X0225966Y0087830D03*
X0228466Y0102830D03*
X0203466Y0102830D03*
X0198466Y0107830D03*
X0210966Y0122830D03*
X0195966Y0132830D03*
X0190966Y0147830D03*
M02*
