G75*
G70*
%OFA0B0*%
%FSLAX25Y25*%
%IPPOS*%
%LPD*%
%AMOC8*
5,1,8,0,0,1.08239X$1,22.5*
%
%ADD10C,0.01181*%
%ADD11R,0.23622X0.05906*%
%ADD12R,0.23622X0.03937*%
%ADD13R,0.08000X0.02600*%
%ADD14R,0.02795X0.07008*%
%ADD15R,0.07008X0.02795*%
%ADD16R,0.04800X0.08800*%
%ADD17R,0.14173X0.08661*%
%ADD18R,0.04724X0.03150*%
%ADD19R,0.03150X0.04724*%
%ADD20R,0.07400X0.07400*%
%ADD21C,0.07400*%
%ADD22C,0.01000*%
%ADD23C,0.03600*%
%ADD24C,0.02400*%
D10*
X0008466Y0003830D02*
X0318466Y0003830D01*
X0318466Y0223830D01*
X0008466Y0223830D01*
X0008466Y0003830D01*
D11*
X0029214Y0020940D03*
X0029214Y0205980D03*
D12*
X0029214Y0199090D03*
X0029214Y0193184D03*
X0029214Y0187279D03*
X0029214Y0181373D03*
X0029214Y0175468D03*
X0029214Y0169562D03*
X0029214Y0163657D03*
X0029214Y0157751D03*
X0029214Y0151846D03*
X0029214Y0145940D03*
X0029214Y0140035D03*
X0029214Y0134129D03*
X0029214Y0128224D03*
X0029214Y0122318D03*
X0029214Y0116413D03*
X0029214Y0110507D03*
X0029214Y0104602D03*
X0029214Y0098696D03*
X0029214Y0092791D03*
X0029214Y0086885D03*
X0029214Y0080980D03*
X0029214Y0075074D03*
X0029214Y0069169D03*
X0029214Y0063263D03*
X0029214Y0057357D03*
X0029214Y0051452D03*
X0029214Y0045546D03*
X0029214Y0039641D03*
X0029214Y0033735D03*
X0029214Y0027830D03*
D13*
X0077977Y0027830D03*
X0077977Y0032830D03*
X0077977Y0037830D03*
X0077977Y0042830D03*
X0077977Y0047830D03*
X0077977Y0052830D03*
X0077977Y0057830D03*
X0077977Y0062830D03*
X0074122Y0082495D03*
X0074122Y0087495D03*
X0074122Y0092495D03*
X0074122Y0097495D03*
X0074122Y0102495D03*
X0074122Y0107495D03*
X0074122Y0112495D03*
X0074122Y0117495D03*
X0098322Y0117495D03*
X0098322Y0112495D03*
X0098322Y0107495D03*
X0098322Y0102495D03*
X0098322Y0097495D03*
X0098322Y0092495D03*
X0098322Y0087495D03*
X0098322Y0082495D03*
X0117577Y0062830D03*
X0117577Y0057830D03*
X0117577Y0052830D03*
X0117577Y0047830D03*
X0117577Y0042830D03*
X0117577Y0037830D03*
X0117577Y0032830D03*
X0117577Y0027830D03*
X0117577Y0022830D03*
X0117577Y0017830D03*
X0077977Y0017830D03*
X0077977Y0022830D03*
X0126071Y0103794D03*
X0126071Y0108794D03*
X0126071Y0113794D03*
X0126071Y0118794D03*
X0126071Y0123794D03*
X0126071Y0128794D03*
X0126071Y0133794D03*
X0126071Y0138794D03*
X0150271Y0138794D03*
X0150271Y0133794D03*
X0150271Y0128794D03*
X0150271Y0123794D03*
X0150271Y0118794D03*
X0150271Y0113794D03*
X0150271Y0108794D03*
X0150271Y0103794D03*
D14*
X0124549Y0161235D03*
X0119549Y0161235D03*
X0114549Y0161235D03*
X0109549Y0161235D03*
X0104549Y0161235D03*
X0099549Y0161235D03*
X0094549Y0161235D03*
X0089549Y0161235D03*
X0084549Y0161235D03*
X0084549Y0204661D03*
X0089549Y0204661D03*
X0094549Y0204661D03*
X0099549Y0204661D03*
X0104549Y0204661D03*
X0109549Y0204661D03*
X0114549Y0204661D03*
X0119549Y0204661D03*
X0124549Y0204661D03*
D15*
X0131261Y0197948D03*
X0131261Y0192948D03*
X0131261Y0187948D03*
X0131261Y0182948D03*
X0131261Y0177948D03*
X0131261Y0172948D03*
X0131261Y0167948D03*
X0077836Y0167948D03*
X0077836Y0172948D03*
X0077836Y0177948D03*
X0077836Y0182948D03*
X0077836Y0187948D03*
X0077836Y0192948D03*
X0077836Y0197948D03*
D16*
X0175232Y0185384D03*
X0184332Y0185384D03*
X0193432Y0185384D03*
X0202791Y0185384D03*
X0211891Y0185384D03*
X0220991Y0185384D03*
X0220991Y0114528D03*
X0211891Y0114528D03*
X0202791Y0114528D03*
X0193432Y0114528D03*
X0184332Y0114528D03*
X0175232Y0114528D03*
X0175232Y0095620D03*
X0184332Y0095620D03*
X0193432Y0095620D03*
X0202791Y0095620D03*
X0211891Y0095620D03*
X0220991Y0095620D03*
X0220991Y0026339D03*
X0211891Y0026339D03*
X0202791Y0026339D03*
X0193432Y0026339D03*
X0184332Y0026339D03*
X0175232Y0026339D03*
D17*
X0184332Y0050739D03*
X0184332Y0071220D03*
X0211891Y0071220D03*
X0211891Y0050739D03*
X0211891Y0138928D03*
X0211891Y0160983D03*
X0184332Y0160983D03*
X0184332Y0138928D03*
D18*
X0147561Y0165546D03*
X0147561Y0172633D03*
X0151576Y0021531D03*
X0151576Y0014444D03*
X0143663Y0014405D03*
X0135789Y0014444D03*
X0135789Y0021531D03*
X0143663Y0021491D03*
D19*
X0120041Y0083893D03*
X0112954Y0083893D03*
X0112954Y0091767D03*
X0120041Y0091767D03*
X0060356Y0090822D03*
X0053269Y0090822D03*
X0053309Y0082948D03*
X0060395Y0082948D03*
D20*
X0238663Y0083420D03*
X0238663Y0105468D03*
X0238663Y0127515D03*
X0238663Y0149562D03*
X0238663Y0171609D03*
X0238663Y0201531D03*
X0238663Y0061373D03*
X0238663Y0039326D03*
X0238663Y0017279D03*
D21*
X0238663Y0027279D03*
X0238663Y0049326D03*
X0238663Y0071373D03*
X0238663Y0093420D03*
X0238663Y0115468D03*
X0238663Y0137515D03*
X0238663Y0159562D03*
X0238663Y0181609D03*
X0238663Y0211531D03*
D22*
X0238466Y0210330D01*
X0203466Y0210330D01*
X0203466Y0187830D01*
X0202791Y0185384D01*
X0200966Y0187830D01*
X0200966Y0192830D01*
X0193466Y0200330D01*
X0175966Y0200330D01*
X0175966Y0187830D01*
X0175232Y0185384D01*
X0175966Y0185330D01*
X0175966Y0177830D01*
X0170966Y0172830D01*
X0170966Y0137830D01*
X0193466Y0115330D01*
X0193432Y0114528D01*
X0193466Y0112830D01*
X0193466Y0105330D01*
X0200966Y0097830D01*
X0202791Y0095620D01*
X0200966Y0095330D01*
X0200966Y0040330D01*
X0193466Y0032830D01*
X0193466Y0027830D01*
X0193432Y0026339D01*
X0193466Y0025330D01*
X0190966Y0022830D01*
X0190966Y0015330D01*
X0153466Y0015330D01*
X0151576Y0014444D01*
X0150966Y0015330D01*
X0145966Y0015330D01*
X0143663Y0014405D01*
X0143466Y0015330D01*
X0135966Y0015330D01*
X0135789Y0014444D01*
X0133466Y0015330D01*
X0133466Y0012830D01*
X0093466Y0012830D01*
X0090966Y0015330D01*
X0090966Y0017830D01*
X0077977Y0017830D01*
X0070966Y0017830D01*
X0065966Y0022830D02*
X0077977Y0022830D01*
X0085966Y0025330D02*
X0090966Y0030330D01*
X0090966Y0042830D01*
X0085966Y0047830D01*
X0077977Y0047830D01*
X0077977Y0042830D02*
X0068466Y0042830D01*
X0068466Y0075330D01*
X0065966Y0077830D01*
X0065966Y0082830D01*
X0060966Y0082830D02*
X0060395Y0082948D01*
X0060966Y0082830D02*
X0060966Y0090330D01*
X0060356Y0090822D01*
X0060966Y0092830D01*
X0073466Y0092830D01*
X0074122Y0092495D01*
X0074122Y0097495D02*
X0075966Y0097830D01*
X0078466Y0097830D01*
X0080966Y0100330D01*
X0078466Y0102830D02*
X0075966Y0102830D01*
X0074122Y0102495D01*
X0073466Y0102830D01*
X0055966Y0102830D01*
X0048466Y0095330D01*
X0048466Y0092830D01*
X0030966Y0092830D01*
X0029214Y0092791D01*
X0030966Y0087830D02*
X0029214Y0086885D01*
X0030966Y0087830D02*
X0040966Y0087830D01*
X0043466Y0090330D01*
X0053466Y0090330D01*
X0053269Y0090822D01*
X0053466Y0092830D01*
X0053466Y0095330D01*
X0055966Y0097830D01*
X0045966Y0097830D02*
X0065966Y0117830D01*
X0065966Y0135330D01*
X0068466Y0137830D01*
X0068466Y0142830D02*
X0078466Y0132830D01*
X0078466Y0127830D01*
X0083466Y0125330D02*
X0075966Y0117830D01*
X0074122Y0117495D01*
X0073466Y0117830D01*
X0073466Y0122830D01*
X0070966Y0125330D01*
X0060966Y0120330D02*
X0055966Y0125330D01*
X0048466Y0125330D01*
X0038466Y0115330D01*
X0030966Y0115330D01*
X0029214Y0116413D01*
X0029214Y0110507D02*
X0030966Y0110330D01*
X0043466Y0110330D01*
X0045966Y0112830D01*
X0055966Y0112830D01*
X0055966Y0120330D01*
X0045966Y0127830D02*
X0040966Y0122830D01*
X0030966Y0122830D01*
X0029214Y0122318D01*
X0030966Y0127830D02*
X0029214Y0128224D01*
X0030966Y0127830D02*
X0040966Y0127830D01*
X0043466Y0130330D01*
X0043466Y0132830D01*
X0053466Y0132830D01*
X0045966Y0135330D02*
X0030966Y0135330D01*
X0029214Y0134129D01*
X0029214Y0140035D02*
X0030966Y0140330D01*
X0045966Y0140330D01*
X0045966Y0135330D02*
X0050966Y0140330D01*
X0050966Y0142830D01*
X0063466Y0155330D01*
X0070966Y0152830D02*
X0078466Y0145330D01*
X0083466Y0145330D02*
X0083466Y0125330D01*
X0093466Y0122830D02*
X0093466Y0160330D01*
X0094549Y0161235D01*
X0098466Y0160330D02*
X0099549Y0161235D01*
X0098466Y0162830D01*
X0098466Y0172830D01*
X0103466Y0177830D01*
X0095966Y0177830D02*
X0108966Y0189330D01*
X0108966Y0201830D01*
X0109549Y0204661D01*
X0113466Y0202830D02*
X0114549Y0204661D01*
X0113466Y0202830D02*
X0113466Y0167830D01*
X0114549Y0161235D02*
X0113466Y0160330D01*
X0113466Y0140330D01*
X0108466Y0135330D01*
X0108466Y0132830D01*
X0113466Y0135330D02*
X0115966Y0137830D01*
X0115966Y0142830D01*
X0118466Y0145330D01*
X0118466Y0160330D01*
X0119549Y0161235D01*
X0123466Y0160330D02*
X0124549Y0161235D01*
X0123466Y0160330D02*
X0133466Y0150330D01*
X0133466Y0132830D01*
X0133466Y0127830D02*
X0128466Y0127830D01*
X0126071Y0128794D01*
X0126071Y0123794D02*
X0128466Y0122830D01*
X0133466Y0122830D01*
X0133466Y0127830D02*
X0138466Y0132830D01*
X0138466Y0135330D01*
X0148466Y0145330D01*
X0148466Y0147830D01*
X0145966Y0150330D01*
X0145966Y0165330D01*
X0147561Y0165546D01*
X0147561Y0172633D02*
X0148466Y0172830D01*
X0148466Y0190330D01*
X0153466Y0185330D02*
X0155966Y0182830D01*
X0155966Y0135330D01*
X0153466Y0132830D01*
X0150966Y0132830D01*
X0150271Y0133794D01*
X0150966Y0137830D02*
X0150271Y0138794D01*
X0150966Y0137830D02*
X0150966Y0152830D01*
X0143466Y0147830D02*
X0143466Y0205330D01*
X0123466Y0205330D01*
X0124549Y0204661D01*
X0119549Y0204661D02*
X0118466Y0205330D01*
X0125966Y0212830D01*
X0168466Y0212830D01*
X0168466Y0105330D01*
X0168466Y0100330D02*
X0175966Y0107830D01*
X0175966Y0112830D01*
X0175232Y0114528D01*
X0163466Y0117830D02*
X0163466Y0100330D01*
X0158466Y0095330D01*
X0158466Y0035330D01*
X0163466Y0030330D01*
X0168466Y0027830D02*
X0173466Y0027830D01*
X0175232Y0026339D01*
X0168466Y0027830D02*
X0163466Y0022830D01*
X0163466Y0017830D01*
X0133466Y0017830D01*
X0130966Y0020330D01*
X0130966Y0025330D01*
X0125966Y0025330D01*
X0123466Y0027830D01*
X0117577Y0027830D01*
X0117577Y0032830D02*
X0138466Y0032830D01*
X0138466Y0030330D01*
X0143466Y0030330D02*
X0143466Y0045330D01*
X0140966Y0047830D01*
X0140966Y0055330D01*
X0145966Y0060330D01*
X0145966Y0070330D01*
X0138466Y0062830D02*
X0138466Y0110330D01*
X0130966Y0117830D01*
X0128466Y0117830D01*
X0126071Y0118794D01*
X0125966Y0117830D01*
X0123466Y0117830D01*
X0113466Y0127830D01*
X0108466Y0122830D02*
X0108466Y0112830D01*
X0110966Y0110330D01*
X0110966Y0095330D01*
X0113466Y0092830D01*
X0112954Y0091767D01*
X0113466Y0085330D02*
X0112954Y0083893D01*
X0113466Y0085330D02*
X0105966Y0092830D01*
X0098466Y0092830D01*
X0098322Y0092495D01*
X0105966Y0097830D02*
X0105966Y0102830D01*
X0098466Y0102830D01*
X0098322Y0102495D01*
X0088466Y0105330D02*
X0095966Y0112830D01*
X0098322Y0112495D01*
X0098322Y0117495D02*
X0098466Y0117830D01*
X0103466Y0117830D01*
X0103466Y0140330D01*
X0108466Y0145330D01*
X0103466Y0145330D02*
X0103466Y0160330D01*
X0104549Y0161235D01*
X0108466Y0160330D02*
X0109549Y0161235D01*
X0108466Y0160330D02*
X0108466Y0150330D01*
X0098466Y0160330D02*
X0098466Y0122830D01*
X0088466Y0112830D02*
X0088466Y0160330D01*
X0089549Y0161235D01*
X0084549Y0161235D02*
X0083466Y0162830D01*
X0093466Y0172830D01*
X0085966Y0172830D02*
X0098966Y0185830D01*
X0098966Y0203330D01*
X0099549Y0204661D01*
X0103966Y0202830D02*
X0104549Y0204661D01*
X0103966Y0202830D02*
X0103966Y0190330D01*
X0090966Y0182830D02*
X0090966Y0200330D01*
X0088466Y0202830D01*
X0089549Y0204661D01*
X0084549Y0204661D02*
X0083466Y0205330D01*
X0078466Y0210330D01*
X0070966Y0210330D02*
X0070966Y0197830D01*
X0075966Y0197830D01*
X0077836Y0197948D01*
X0077836Y0192948D02*
X0075966Y0192830D01*
X0070966Y0192830D01*
X0065966Y0197830D02*
X0065966Y0215330D01*
X0085966Y0215330D01*
X0093466Y0207830D01*
X0093466Y0205330D01*
X0094549Y0204661D01*
X0085966Y0195330D02*
X0085966Y0187830D01*
X0078466Y0187830D01*
X0077836Y0187948D01*
X0077836Y0182948D02*
X0075966Y0182830D01*
X0045966Y0212830D01*
X0015966Y0212830D01*
X0015966Y0065330D01*
X0015966Y0012830D01*
X0045966Y0012830D01*
X0063466Y0030330D01*
X0063466Y0065330D01*
X0060966Y0067830D01*
X0063466Y0070330D02*
X0063466Y0072830D01*
X0060966Y0072830D02*
X0053466Y0072830D01*
X0053466Y0060330D01*
X0053466Y0055330D02*
X0044966Y0055330D01*
X0030966Y0057830D01*
X0029214Y0057357D01*
X0029214Y0051452D02*
X0030966Y0050330D01*
X0043466Y0050330D01*
X0045966Y0047830D01*
X0041466Y0045830D02*
X0045966Y0042830D01*
X0050966Y0042830D02*
X0050966Y0037830D01*
X0045966Y0032830D01*
X0030966Y0032830D01*
X0029214Y0033735D01*
X0029214Y0039641D02*
X0042966Y0038830D01*
X0045966Y0037830D01*
X0050966Y0042830D02*
X0058466Y0050330D01*
X0070966Y0057830D02*
X0077977Y0057830D01*
X0077977Y0062830D02*
X0075966Y0062830D01*
X0075966Y0077830D01*
X0075966Y0082830D01*
X0074122Y0082495D01*
X0070966Y0077830D02*
X0070966Y0057830D01*
X0077977Y0052830D02*
X0085966Y0052830D01*
X0085966Y0042830D02*
X0085966Y0037830D01*
X0077977Y0037830D01*
X0077977Y0032830D02*
X0073466Y0032830D01*
X0070966Y0035330D01*
X0070966Y0030330D02*
X0070966Y0027830D01*
X0077977Y0027830D01*
X0065966Y0022830D02*
X0065966Y0067830D01*
X0063466Y0070330D01*
X0060966Y0072830D01*
X0050966Y0072830D02*
X0048466Y0075330D01*
X0050966Y0077830D01*
X0048466Y0075330D02*
X0043466Y0080330D01*
X0030966Y0080330D01*
X0029214Y0080980D01*
X0029214Y0075074D02*
X0030966Y0075330D01*
X0030966Y0072830D01*
X0045966Y0072830D01*
X0045966Y0067830D02*
X0050966Y0072830D01*
X0040966Y0070330D02*
X0040966Y0067830D01*
X0045966Y0062830D01*
X0045966Y0060330D01*
X0040966Y0070330D02*
X0030966Y0070330D01*
X0029214Y0069169D01*
X0029214Y0063263D02*
X0028466Y0062830D01*
X0018466Y0062830D01*
X0015966Y0065330D01*
X0029214Y0045546D02*
X0030966Y0045330D01*
X0031466Y0045830D01*
X0041466Y0045830D01*
X0030966Y0020330D02*
X0029214Y0020940D01*
X0030966Y0020330D02*
X0048466Y0020330D01*
X0093466Y0017830D02*
X0117577Y0017830D01*
X0117577Y0022830D02*
X0128466Y0022830D01*
X0128466Y0017830D01*
X0135789Y0021531D02*
X0135966Y0022830D01*
X0143466Y0030330D01*
X0150966Y0035330D02*
X0155966Y0040330D01*
X0155966Y0097830D01*
X0158466Y0100330D01*
X0158466Y0127830D01*
X0153466Y0122830D01*
X0150966Y0122830D01*
X0150271Y0123794D01*
X0150271Y0118794D02*
X0148466Y0117830D01*
X0143466Y0117830D01*
X0140966Y0112830D02*
X0138466Y0115330D01*
X0138466Y0127830D01*
X0140966Y0130330D01*
X0125966Y0137830D02*
X0126071Y0138794D01*
X0125966Y0137830D02*
X0118466Y0137830D01*
X0118466Y0135330D01*
X0138466Y0152830D02*
X0138466Y0172830D01*
X0133466Y0177830D01*
X0131261Y0177948D01*
X0131261Y0172948D02*
X0130966Y0172830D01*
X0128466Y0172830D01*
X0123466Y0177830D01*
X0123466Y0190330D01*
X0131261Y0187948D02*
X0133466Y0187830D01*
X0138466Y0187830D01*
X0138466Y0185330D01*
X0133466Y0192830D02*
X0131261Y0192948D01*
X0133466Y0192830D02*
X0138466Y0197830D01*
X0131261Y0197948D02*
X0130966Y0197830D01*
X0123466Y0197830D01*
X0158466Y0205330D02*
X0158466Y0132830D01*
X0163466Y0117830D02*
X0163466Y0157830D01*
X0184332Y0138928D02*
X0185966Y0140330D01*
X0190966Y0145330D01*
X0190966Y0147830D01*
X0198466Y0135330D02*
X0200966Y0132830D01*
X0200966Y0122830D01*
X0198466Y0120330D01*
X0198466Y0107830D01*
X0193466Y0105330D02*
X0183466Y0105330D01*
X0175966Y0097830D01*
X0175232Y0095620D01*
X0175966Y0097830D02*
X0175966Y0100330D01*
X0178466Y0102830D01*
X0183466Y0095330D02*
X0184332Y0095620D01*
X0183466Y0095330D02*
X0183466Y0087830D01*
X0180966Y0082830D02*
X0193466Y0082830D01*
X0193466Y0095330D01*
X0193432Y0095620D01*
X0202791Y0095620D02*
X0203466Y0097830D01*
X0208466Y0102830D01*
X0208466Y0105330D01*
X0213466Y0105330D01*
X0220966Y0112830D01*
X0220991Y0114528D01*
X0211891Y0114528D02*
X0210966Y0115330D01*
X0210966Y0122830D01*
X0202791Y0114528D02*
X0203466Y0112830D01*
X0203466Y0102830D01*
X0220991Y0095620D02*
X0220966Y0095330D01*
X0220966Y0087830D01*
X0228466Y0080330D01*
X0228466Y0070330D01*
X0225966Y0067830D01*
X0225966Y0047830D01*
X0223466Y0045330D01*
X0220966Y0035330D02*
X0233466Y0035330D01*
X0233466Y0032830D01*
X0238466Y0027830D01*
X0238663Y0027279D01*
X0238663Y0039326D02*
X0240966Y0040330D01*
X0245966Y0045330D01*
X0245966Y0050330D01*
X0238466Y0057830D01*
X0238466Y0060330D01*
X0238663Y0061373D01*
X0240966Y0062830D01*
X0245966Y0067830D01*
X0245966Y0072830D01*
X0238466Y0080330D01*
X0238466Y0082830D01*
X0238663Y0083420D01*
X0228466Y0090330D02*
X0228466Y0102830D01*
X0230966Y0100330D02*
X0233466Y0102830D01*
X0233466Y0105330D01*
X0228466Y0110330D01*
X0228466Y0172830D01*
X0220966Y0180330D01*
X0220966Y0185330D01*
X0220991Y0185384D01*
X0215966Y0190330D02*
X0220966Y0195330D01*
X0230966Y0195330D01*
X0230966Y0165330D01*
X0238466Y0157830D01*
X0238663Y0159562D01*
X0240966Y0170330D02*
X0238663Y0171609D01*
X0240966Y0170330D02*
X0248466Y0177830D01*
X0248466Y0192830D01*
X0240966Y0200330D01*
X0238663Y0201531D01*
X0215966Y0190330D02*
X0215966Y0165330D01*
X0213466Y0162830D01*
X0211891Y0160983D01*
X0195966Y0177830D02*
X0193466Y0180330D01*
X0193466Y0185330D01*
X0193432Y0185384D01*
X0198466Y0190330D02*
X0198466Y0135330D01*
X0195966Y0132830D02*
X0195966Y0177830D01*
X0183466Y0177830D02*
X0183466Y0185330D01*
X0184332Y0185384D01*
X0193466Y0195330D02*
X0198466Y0190330D01*
X0238663Y0127515D02*
X0238466Y0125330D01*
X0238466Y0122830D01*
X0245966Y0115330D01*
X0245966Y0112830D01*
X0240966Y0107830D01*
X0238663Y0105468D01*
X0230966Y0100330D02*
X0230966Y0065330D01*
X0223466Y0070330D02*
X0213466Y0070330D01*
X0211891Y0071220D01*
X0225966Y0087830D02*
X0228466Y0090330D01*
X0180966Y0082830D02*
X0170966Y0072830D01*
X0170966Y0037830D01*
X0173466Y0035330D01*
X0184332Y0050739D02*
X0185966Y0050330D01*
X0195966Y0050330D01*
X0200966Y0035330D02*
X0203466Y0032830D01*
X0203466Y0027830D01*
X0202791Y0026339D01*
X0200966Y0017830D02*
X0193466Y0025330D01*
X0200966Y0017830D02*
X0220966Y0017830D01*
X0220966Y0025330D01*
X0220991Y0026339D01*
X0213466Y0027830D02*
X0211891Y0026339D01*
X0213466Y0027830D02*
X0220966Y0035330D01*
X0168466Y0087830D02*
X0163466Y0082830D01*
X0168466Y0087830D02*
X0168466Y0100330D01*
X0150271Y0103794D02*
X0148466Y0102830D01*
X0148466Y0097830D01*
X0145966Y0095330D01*
X0133466Y0092830D02*
X0133466Y0100330D01*
X0125966Y0102830D02*
X0126071Y0103794D01*
X0125966Y0102830D02*
X0125966Y0090330D01*
X0128466Y0087830D02*
X0133466Y0092830D01*
X0128466Y0087830D02*
X0128466Y0057830D01*
X0117577Y0057830D01*
X0117577Y0062830D02*
X0113466Y0062830D01*
X0110966Y0060330D01*
X0117577Y0052830D02*
X0128466Y0052830D01*
X0133466Y0047830D02*
X0117577Y0047830D01*
X0117577Y0042830D02*
X0105966Y0042830D01*
X0105966Y0072830D01*
X0116466Y0075330D02*
X0116466Y0100330D01*
X0118466Y0105330D02*
X0113466Y0110330D01*
X0113466Y0112830D01*
X0126071Y0108794D02*
X0128466Y0107830D01*
X0130966Y0107830D01*
X0133466Y0110330D01*
X0140966Y0112830D02*
X0140966Y0060330D01*
X0138466Y0057830D01*
X0138466Y0042830D01*
X0135966Y0045330D02*
X0135966Y0060330D01*
X0138466Y0062830D01*
X0120966Y0070330D02*
X0116466Y0075330D01*
X0120041Y0083893D02*
X0120966Y0085330D01*
X0120966Y0090330D01*
X0120041Y0091767D01*
X0133466Y0080330D02*
X0133466Y0047830D01*
X0135966Y0045330D02*
X0133466Y0042830D01*
X0145966Y0047830D02*
X0145966Y0022830D01*
X0143663Y0021491D01*
X0145966Y0020330D01*
X0150966Y0020330D01*
X0151576Y0021531D01*
X0117577Y0037830D02*
X0108466Y0037830D01*
X0108466Y0025330D01*
X0093466Y0017830D02*
X0093466Y0072830D01*
X0088466Y0077830D01*
X0088466Y0105330D01*
X0080966Y0105330D02*
X0078466Y0102830D01*
X0074122Y0107495D02*
X0073466Y0107830D01*
X0060966Y0107830D01*
X0065966Y0112830D02*
X0073466Y0112830D01*
X0074122Y0112495D01*
X0045966Y0107830D02*
X0045966Y0105330D01*
X0030966Y0105330D01*
X0029214Y0104602D01*
X0029214Y0098696D02*
X0030966Y0097830D01*
X0045966Y0097830D01*
X0045966Y0085330D02*
X0045966Y0082830D01*
X0053466Y0082830D01*
X0053309Y0082948D01*
X0080966Y0082830D02*
X0083466Y0080330D01*
X0083466Y0067830D01*
X0068466Y0142830D02*
X0068466Y0170330D01*
X0075966Y0177830D01*
X0077836Y0177948D01*
X0077836Y0172948D02*
X0075966Y0172830D01*
X0070966Y0167830D01*
X0070966Y0152830D01*
X0078466Y0160330D02*
X0078466Y0167830D01*
X0077836Y0167948D01*
X0063466Y0172830D02*
X0043466Y0152830D01*
X0030966Y0152830D01*
X0029214Y0151846D01*
X0029214Y0145940D02*
X0030966Y0145330D01*
X0040966Y0145330D01*
X0045966Y0150330D01*
X0043466Y0157830D02*
X0030966Y0157830D01*
X0029214Y0157751D01*
X0030966Y0162830D02*
X0029214Y0163657D01*
X0030966Y0162830D02*
X0040966Y0162830D01*
X0045966Y0167830D01*
X0050966Y0165330D02*
X0043466Y0157830D01*
X0050966Y0165330D02*
X0050966Y0185330D01*
X0053466Y0187830D01*
X0058466Y0190330D02*
X0058466Y0175330D01*
X0045966Y0172830D02*
X0040966Y0169330D01*
X0030966Y0169330D01*
X0029214Y0169562D01*
X0029214Y0175468D02*
X0030966Y0175330D01*
X0040466Y0175330D01*
X0045966Y0177830D01*
X0045966Y0182830D02*
X0045966Y0187830D01*
X0030966Y0187830D01*
X0029214Y0187279D01*
X0030966Y0192830D02*
X0029214Y0193184D01*
X0030966Y0192830D02*
X0045966Y0192830D01*
X0045966Y0197830D02*
X0045966Y0200330D01*
X0030966Y0200330D01*
X0029214Y0199090D01*
X0030966Y0205330D02*
X0029214Y0205980D01*
X0030966Y0205330D02*
X0048466Y0205330D01*
D23*
X0048466Y0205330D03*
X0045966Y0197830D03*
X0045966Y0192830D03*
X0053466Y0187830D03*
X0058466Y0190330D03*
X0065966Y0197830D03*
X0070966Y0192830D03*
X0085966Y0195330D03*
X0090966Y0182830D03*
X0095966Y0177830D03*
X0093466Y0172830D03*
X0085966Y0172830D03*
X0078466Y0160330D03*
X0063466Y0155330D03*
X0078466Y0145330D03*
X0083466Y0145330D03*
X0068466Y0137830D03*
X0078466Y0127830D03*
X0070966Y0125330D03*
X0060966Y0120330D03*
X0055966Y0120330D03*
X0045966Y0127830D03*
X0053466Y0132830D03*
X0045966Y0140330D03*
X0045966Y0150330D03*
X0045966Y0167830D03*
X0045966Y0172830D03*
X0045966Y0177830D03*
X0045966Y0182830D03*
X0058466Y0175330D03*
X0063466Y0172830D03*
X0103466Y0177830D03*
X0103966Y0190330D03*
X0123466Y0190330D03*
X0123466Y0197830D03*
X0138466Y0197830D03*
X0148466Y0190330D03*
X0153466Y0185330D03*
X0138466Y0185330D03*
X0113466Y0167830D03*
X0108466Y0150330D03*
X0108466Y0145330D03*
X0103466Y0145330D03*
X0113466Y0135330D03*
X0118466Y0135330D03*
X0113466Y0127830D03*
X0108466Y0122830D03*
X0098466Y0122830D03*
X0093466Y0122830D03*
X0088466Y0112830D03*
X0080966Y0105330D03*
X0080966Y0100330D03*
X0065966Y0112830D03*
X0060966Y0107830D03*
X0055966Y0097830D03*
X0045966Y0097830D03*
X0045966Y0107830D03*
X0045966Y0085330D03*
X0050966Y0077830D03*
X0045966Y0072830D03*
X0045966Y0067830D03*
X0045966Y0060330D03*
X0053466Y0060330D03*
X0053466Y0055330D03*
X0058466Y0050330D03*
X0045966Y0047830D03*
X0045966Y0042830D03*
X0045966Y0037830D03*
X0048466Y0020330D03*
X0070966Y0017830D03*
X0085966Y0025330D03*
X0070966Y0030330D03*
X0070966Y0035330D03*
X0085966Y0042830D03*
X0085966Y0047830D03*
X0085966Y0052830D03*
X0083466Y0067830D03*
X0075966Y0077830D03*
X0070966Y0077830D03*
X0065966Y0082830D03*
X0063466Y0072830D03*
X0060966Y0067830D03*
X0080966Y0082830D03*
X0105966Y0072830D03*
X0120966Y0070330D03*
X0110966Y0060330D03*
X0128466Y0052830D03*
X0133466Y0042830D03*
X0138466Y0042830D03*
X0145966Y0047830D03*
X0150966Y0035330D03*
X0163466Y0030330D03*
X0173466Y0035330D03*
X0195966Y0050330D03*
X0200966Y0035330D03*
X0223466Y0045330D03*
X0230966Y0065330D03*
X0223466Y0070330D03*
X0225966Y0087830D03*
X0228466Y0102830D03*
X0203466Y0102830D03*
X0198466Y0107830D03*
X0178466Y0102830D03*
X0168466Y0105330D03*
X0163466Y0117830D03*
X0158466Y0127830D03*
X0158466Y0132830D03*
X0140966Y0130330D03*
X0133466Y0132830D03*
X0133466Y0122830D03*
X0143466Y0117830D03*
X0133466Y0110330D03*
X0133466Y0100330D03*
X0125966Y0090330D03*
X0116466Y0100330D03*
X0118466Y0105330D03*
X0105966Y0097830D03*
X0113466Y0112830D03*
X0108466Y0132830D03*
X0138466Y0152830D03*
X0143466Y0147830D03*
X0150966Y0152830D03*
X0163466Y0157830D03*
X0175966Y0177830D03*
X0183466Y0177830D03*
X0193466Y0195330D03*
X0158466Y0205330D03*
X0190966Y0147830D03*
X0195966Y0132830D03*
X0210966Y0122830D03*
X0183466Y0087830D03*
X0163466Y0082830D03*
X0145966Y0070330D03*
X0133466Y0080330D03*
X0145966Y0095330D03*
X0138466Y0030330D03*
X0128466Y0017830D03*
X0108466Y0025330D03*
X0078466Y0210330D03*
X0070966Y0210330D03*
D24*
X0185120Y0097594D02*
X0185120Y0096019D01*
X0185120Y0094444D01*
X0184332Y0095620D02*
X0184731Y0096019D01*
X0185120Y0096019D01*
M02*
